Coordinates
version=1
nRows=7
nColumns=40
inDegrees=yes

Units are S.I. units (second, meters, Newtons, ...)
Angles are in degrees.

endheader
time	pelvis_tilt	pelvis_list	pelvis_rotation	pelvis_tx	pelvis_ty	pelvis_tz	hip_flexion_r	hip_adduction_r	hip_rotation_r	knee_angle_r	knee_angle_r_beta	ankle_angle_r	subtalar_angle_r	mtp_angle_r	hip_flexion_l	hip_adduction_l	hip_rotation_l	knee_angle_l	knee_angle_l_beta	ankle_angle_l	subtalar_angle_l	mtp_angle_l	lumbar_extension	lumbar_bending	lumbar_rotation	arm_flex_r	arm_add_r	arm_rot_r	elbow_flex_r	pro_sup_r	wrist_flex_r	wrist_dev_r	arm_flex_l	arm_add_l	arm_rot_l	elbow_flex_l	pro_sup_l	wrist_flex_l	wrist_dev_l
     41.63414286	     -2.48620617	     -6.73308500	      3.80484513	      1.05127217	      0.93188993	      0.52184002	      7.59864415	      5.81056016	    -20.94465268	     12.27943319	     12.27943319	     10.64005979	      7.72628818	     -7.39434842	     37.96999355	    -14.45151993	      0.29339390	     40.73777210	     40.73777210	      8.02203854	    -14.19485062	     11.28170060	    -14.20519953	      9.18083887	      6.46732541	     30.96810773	    -14.13571913	     -0.71276295	     44.11781416	     45.59346384	      0.00000000	      0.00000000	     -8.97504346	     -6.87812420	     -6.32953126	     36.32156742	     47.20376047	      0.00000000	      0.00000000
     41.64578571	     -2.54982856	     -6.79987505	      3.71526227	      1.05046034	      0.93161633	      0.52249010	      6.93631379	      6.04588343	    -20.83041851	     11.85929995	     11.85929995	     10.95535851	      8.06495259	     -7.46030290	     37.87381579	    -14.31690107	      0.33652440	     36.91828623	     36.91828623	      7.78811960	    -12.74595291	     11.64707891	    -14.16136566	      9.24120143	      6.41838647	     32.98672684	    -13.70137531	     -0.40280623	     46.04237822	     45.51857818	      0.00000000	      0.00000000	    -10.13217535	     -7.05776280	     -6.52642234	     34.43660792	     47.18802871	      0.00000000	      0.00000000
     41.65742857	     -2.68639487	     -6.91115228	      3.60646352	      1.04976731	      0.93121842	      0.52298608	      6.31117048	      6.30803432	    -20.84100482	     11.37838272	     11.37838272	     11.25494585	      8.60011898	     -7.46651002	     37.72898242	    -14.23528709	      0.27827888	     33.07370170	     33.07370170	      7.28587007	    -11.19619573	     11.37185518	    -14.02504759	      9.43299835	      6.96897489	     34.03204872	    -14.32515867	      1.19261372	     50.19556247	     45.30825071	      0.00000000	      0.00000000	    -10.01782974	     -6.90508394	     -7.69431958	     30.39854982	     47.25610384	      0.00000000	      0.00000000
     41.66907143	     -2.79228677	     -6.94965781	      3.45032780	      1.04922062	      0.93084785	      0.52348770	      5.66295025	      6.49853923	    -20.68802690	     10.94668950	     10.94668950	     11.56584879	      8.94677934	     -7.50336437	     37.43985497	    -14.12194980	      0.05410235	     29.38957665	     29.38957665	      7.13667013	     -9.51437443	     12.00665549	    -13.91205857	      9.45581477	      6.82245403	     36.02208579	    -13.67637013	      1.28637915	     52.01402453	     45.25135267	      0.00000000	      0.00000000	    -11.36966742	     -7.15632348	     -7.78723672	     29.37812156	     47.23575472	      0.00000000	      0.00000000
     41.68071429	     -2.87284237	     -7.07060246	      3.31602723	      1.04887663	      0.93041858	      0.52385641	      4.91629889	      6.78042780	    -20.60347271	     10.39981699	     10.39981699	     11.85011312	      9.45952794	     -7.47388917	     37.14988460	    -14.10617646	     -0.30201580	     26.05078973	     26.05078973	      7.01158053	     -7.73614980	     12.62944785	    -13.81745992	      9.61556004	      6.51743671	     37.85397425	    -12.93400608	      1.62614218	     54.54101638	     45.15941206	      0.00000000	      0.00000000	    -12.62715784	     -7.30767502	     -7.83577278	     28.13835524	     47.20748453	      0.00000000	      0.00000000
     41.69235714	     -3.02690359	     -7.15342420	      3.15490420	      1.04861798	      0.92985444	      0.52410908	      4.29738596	      6.98528032	    -20.48615628	      9.97363553	      9.97363553	     12.16544515	      9.87271133	     -7.47081177	     36.86995397	    -14.04252422	     -0.82239710	     22.98463940	     22.98463940	      6.81881362	     -6.16093894	     13.33006488	    -13.59193705	      9.70029781	      6.42560332	     39.45797406	    -12.34170354	      1.94971812	     56.79586645	     45.07702349	      0.00000000	      0.00000000	    -13.76341907	     -7.45193730	     -7.84300610	     27.18529985	     47.18096489	      0.00000000	      0.00000000
     41.70400000	     -3.10984288	     -7.30836493	      2.98503766	      1.04861031	      0.92927317	      0.52423433	      3.53937671	      7.25911166	    -20.49717024	      9.47095418	      9.47095418	     12.61160189	     10.64350640	     -7.01208803	     36.67443605	    -14.08951246	     -1.53420668	     20.67070370	     20.67070370	      6.99823328	     -4.59879082	     14.46616573	    -13.57707135	      9.90017453	      6.95087012	     39.71289000	    -13.14014249	      3.44999475	     63.17469476	     44.83286735	      0.00000000	      0.00000000	    -14.24669274	     -7.65125133	     -7.68856568	     25.44661308	     47.08797224	      0.00000000	      0.00000000
